<?xml version="1.0" encoding="UTF-8"?><svg xmlns="http://www.w3.org/2000/svg" id="Livello_1" version="1.1" viewBox="0 0 117.31 139.39">
<!-- Generator: Adobe Illustrator 29.4.0, SVG Export Plug-In . SVG Version: 2.1.0 Build 152)  -->
<defs>
<style>
.st0 {
fill: #1d1d1b;
}
.st0, .st1, .st2, .st3, .st4 {
isolation: isolate;
}
.st0, .st4 {
font-family: Arial-BoldMT, Arial;
font-size: 3.15px;
font-weight: 700;
}
.st1 {
fill: #e5e5e5;
stroke-width: .3px;
}
.st1, .st2 {
mix-blend-mode: multiply;
stroke: #b5b5b1;
stroke-miterlimit: 10;
}
.st2 {
fill: #d9d7d7;
stroke-width: .5px;
}
.st4 {
fill: #e5241e;
}
</style>
</defs>
<g class="st3">
<g id="PIANTINA">
<g id="PLATEA">
<g id="PLATEA_FILA_L">
<g id="PLATEA_L12">
<g class="st3">
<text class="st0" transform="translate(103.12 132.55)"><tspan x="0" y="0">12</tspan></text>
</g>
<rect class="posto st1" data-posto="PLATEA_L12" data-zona="PLATEA" x="101.57" y="128.3" width="6.82" height="6.82" rx="2.1" ry="2.1"/>
</g>
<g id="PLATEA_L11">
<g class="st3">
<g class="st3">
<text class="st0" transform="translate(94.62 132.55)"><tspan x="0" y="0">1</tspan></text>
</g>
<g class="st3">
<text class="st0" transform="translate(96.2 132.55)"><tspan x="0" y="0">1</tspan></text>
</g>
</g>
<rect class="posto st1" data-posto="PLATEA_L11" data-zona="PLATEA" x="92.95" y="128.3" width="6.82" height="6.82" rx="2.1" ry="2.1"/>
</g>
<g id="PLATEA_L10">
<g class="st3">
<text class="st0" transform="translate(86.06 132.55)"><tspan x="0" y="0">10</tspan></text>
</g>
<rect class="posto st1" data-posto="PLATEA_L10" data-zona="PLATEA" x="84.32" y="128.3" width="6.82" height="6.82" rx="2.1" ry="2.1"/>
</g>
<g id="PLATEA_L9">
<g class="st3">
<text class="st0" transform="translate(78.34 132.55)"><tspan x="0" y="0">9</tspan></text>
</g>
<rect class="posto st1" data-posto="PLATEA_L9" data-zona="PLATEA" x="75.76" y="128.3" width="6.82" height="6.82" rx="2.1" ry="2.1"/>
</g>
<g id="PLATEA_L8">
<g class="st3">
<text class="st0" transform="translate(69.71 132.55)"><tspan x="0" y="0">8</tspan></text>
</g>
<rect class="posto st1" data-posto="PLATEA_L8" data-zona="PLATEA" x="67.14" y="128.3" width="6.82" height="6.82" rx="2.1" ry="2.1"/>
</g>
<g id="PLATEA_L7">
<g class="st3">
<text class="st0" transform="translate(61.09 132.55)"><tspan x="0" y="0">7</tspan></text>
</g>
<rect class="posto st1" data-posto="PLATEA_L7" data-zona="PLATEA" x="58.58" y="128.3" width="6.82" height="6.82" rx="2.1" ry="2.1"/>
</g>
<g id="PLATEA_L6">
<g class="st3">
<text class="st0" transform="translate(52.53 132.55)"><tspan x="0" y="0">6</tspan></text>
</g>
<rect class="posto st1" data-posto="PLATEA_L6" data-zona="PLATEA" x="49.95" y="128.3" width="6.82" height="6.82" rx="2.1" ry="2.1"/>
</g>
<g id="PLATEA_L5">
<g class="st3">
<text class="st0" transform="translate(43.9 132.55)"><tspan x="0" y="0">5</tspan></text>
</g>
<rect class="posto st1" data-posto="PLATEA_L5" data-zona="PLATEA" x="41.33" y="128.3" width="6.82" height="6.82" rx="2.1" ry="2.1"/>
</g>
<g id="PLATEA_L4">
<g class="st3">
<text class="st0" transform="translate(35.21 132.55)"><tspan x="0" y="0">4</tspan></text>
</g>
<rect class="posto st1" data-posto="PLATEA_L4" data-zona="PLATEA" x="32.64" y="128.3" width="6.82" height="6.82" rx="2.1" ry="2.1"/>
</g>
<g id="PLATEA_L3">
<g class="st3">
<text class="st0" transform="translate(26.59 132.55)"><tspan x="0" y="0">3</tspan></text>
</g>
<rect class="posto st1" data-posto="PLATEA_L3" data-zona="PLATEA" x="24.01" y="128.3" width="6.82" height="6.82" rx="2.1" ry="2.1"/>
</g>
<g id="PLATEA_L2">
<g class="st3">
<text class="st0" transform="translate(17.96 132.55)"><tspan x="0" y="0">2</tspan></text>
</g>
<rect class="posto st1" data-posto="PLATEA_L2" data-zona="PLATEA" x="15.45" y="128.3" width="6.82" height="6.82" rx="2.1" ry="2.1"/>
</g>
<g id="PLATEA_L1">
<g class="st3">
<text class="st0" transform="translate(9.4 132.55)"><tspan x="0" y="0">1</tspan></text>
</g>
<rect class="posto st1" data-posto="PLATEA_L1" data-zona="PLATEA" x="6.83" y="128.3" width="6.82" height="6.82" rx="2.1" ry="2.1"/>
</g>
</g>
<g id="PLATEA_FILA_I">
<g id="PLATEA_I12">
<g class="st3">
<text class="st0" transform="translate(103.12 123.28)"><tspan x="0" y="0">12</tspan></text>
</g>
<rect class="posto st1" data-posto="PLATEA_I12" data-zona="PLATEA" x="101.57" y="119.03" width="6.82" height="6.82" rx="2.1" ry="2.1"/>
</g>
<g id="PLATEA_I11">
<g class="st3">
<g class="st3">
<text class="st0" transform="translate(94.62 123.28)"><tspan x="0" y="0">1</tspan></text>
</g>
<g class="st3">
<text class="st0" transform="translate(96.2 123.28)"><tspan x="0" y="0">1</tspan></text>
</g>
</g>
<rect class="posto st1" data-posto="PLATEA_I11" data-zona="PLATEA" x="92.95" y="119.03" width="6.82" height="6.82" rx="2.1" ry="2.1"/>
</g>
<g id="PLATEA_I10">
<g class="st3">
<text class="st0" transform="translate(86.06 123.28)"><tspan x="0" y="0">10</tspan></text>
</g>
<rect class="posto st1" data-posto="PLATEA_I10" data-zona="PLATEA" x="84.32" y="119.03" width="6.82" height="6.82" rx="2.1" ry="2.1"/>
</g>
<g id="PLATEA_I9">
<g class="st3">
<text class="st0" transform="translate(78.34 123.28)"><tspan x="0" y="0">9</tspan></text>
</g>
<rect class="posto st1" data-posto="PLATEA_I9" data-zona="PLATEA" x="75.76" y="119.03" width="6.82" height="6.82" rx="2.1" ry="2.1"/>
</g>
<g id="PLATEA_I8">
<g class="st3">
<text class="st0" transform="translate(69.71 123.28)"><tspan x="0" y="0">8</tspan></text>
</g>
<rect class="posto st1" data-posto="PLATEA_I8" data-zona="PLATEA" x="67.14" y="119.03" width="6.82" height="6.82" rx="2.1" ry="2.1"/>
</g>
<g id="PLATEA_I7">
<g class="st3">
<text class="st0" transform="translate(61.09 123.28)"><tspan x="0" y="0">7</tspan></text>
</g>
<rect class="posto st1" data-posto="PLATEA_I7" data-zona="PLATEA" x="58.58" y="119.03" width="6.82" height="6.82" rx="2.1" ry="2.1"/>
</g>
<g id="PLATEA_I6">
<g class="st3">
<text class="st0" transform="translate(52.53 123.28)"><tspan x="0" y="0">6</tspan></text>
</g>
<rect class="posto st1" data-posto="PLATEA_I6" data-zona="PLATEA" x="49.95" y="119.03" width="6.82" height="6.82" rx="2.1" ry="2.1"/>
</g>
<g id="PLATEA_I5">
<g class="st3">
<text class="st0" transform="translate(43.9 123.28)"><tspan x="0" y="0">5</tspan></text>
</g>
<rect class="posto st1" data-posto="PLATEA_I5" data-zona="PLATEA" x="41.33" y="119.03" width="6.82" height="6.82" rx="2.1" ry="2.1"/>
</g>
<g id="PLATEA_I4">
<g class="st3">
<text class="st0" transform="translate(35.21 123.28)"><tspan x="0" y="0">4</tspan></text>
</g>
<rect class="posto st1" data-posto="PLATEA_I4" data-zona="PLATEA" x="32.64" y="119.03" width="6.82" height="6.82" rx="2.1" ry="2.1"/>
</g>
<g id="PLATEA_I3">
<g class="st3">
<text class="st0" transform="translate(26.59 123.28)"><tspan x="0" y="0">3</tspan></text>
</g>
<rect class="posto st1" data-posto="PLATEA_I3" data-zona="PLATEA" x="24.01" y="119.03" width="6.82" height="6.82" rx="2.1" ry="2.1"/>
</g>
<g id="PLATEA_I2">
<g class="st3">
<text class="st0" transform="translate(17.96 123.28)"><tspan x="0" y="0">2</tspan></text>
</g>
<rect class="posto st1" data-posto="PLATEA_I2" data-zona="PLATEA" x="15.45" y="119.03" width="6.82" height="6.82" rx="2.1" ry="2.1"/>
</g>
<g id="PLATEA_I1">
<g class="st3">
<text class="st0" transform="translate(9.4 123.28)"><tspan x="0" y="0">1</tspan></text>
</g>
<rect class="posto st1" data-posto="PLATEA_I1" data-zona="PLATEA" x="6.83" y="119.03" width="6.82" height="6.82" rx="2.1" ry="2.1"/>
</g>
</g>
<g id="PLATEA_FILA_H">
<g id="PLATEA_H12">
<g class="st3">
<text class="st0" transform="translate(103.12 113.69)"><tspan x="0" y="0">12</tspan></text>
</g>
<rect class="posto st1" data-posto="PLATEA_H12" data-zona="PLATEA" x="101.57" y="109.44" width="6.82" height="6.82" rx="2.1" ry="2.1"/>
</g>
<g id="PLATEA_H11">
<g class="st3">
<g class="st3">
<text class="st0" transform="translate(94.62 113.69)"><tspan x="0" y="0">1</tspan></text>
</g>
<g class="st3">
<text class="st0" transform="translate(96.2 113.69)"><tspan x="0" y="0">1</tspan></text>
</g>
</g>
<rect class="posto st1" data-posto="PLATEA_H11" data-zona="PLATEA" x="92.95" y="109.44" width="6.82" height="6.82" rx="2.1" ry="2.1"/>
</g>
<g id="PLATEA_H10">
<g class="st3">
<text class="st0" transform="translate(86.06 113.69)"><tspan x="0" y="0">10</tspan></text>
</g>
<rect class="posto st1" data-posto="PLATEA_H10" data-zona="PLATEA" x="84.32" y="109.44" width="6.82" height="6.82" rx="2.1" ry="2.1"/>
</g>
<g id="PLATEA_H9">
<g class="st3">
<text class="st0" transform="translate(78.34 113.69)"><tspan x="0" y="0">9</tspan></text>
</g>
<rect class="posto st1" data-posto="PLATEA_H9" data-zona="PLATEA" x="75.76" y="109.44" width="6.82" height="6.82" rx="2.1" ry="2.1"/>
</g>
<g id="PLATEA_H8">
<g class="st3">
<text class="st0" transform="translate(69.71 113.69)"><tspan x="0" y="0">8</tspan></text>
</g>
<rect class="posto st1" data-posto="PLATEA_H8" data-zona="PLATEA" x="67.14" y="109.44" width="6.82" height="6.82" rx="2.1" ry="2.1"/>
</g>
<g id="PLATEA_H7">
<g class="st3">
<text class="st0" transform="translate(61.09 113.69)"><tspan x="0" y="0">7</tspan></text>
</g>
<rect class="posto st1" data-posto="PLATEA_H7" data-zona="PLATEA" x="58.58" y="109.44" width="6.82" height="6.82" rx="2.1" ry="2.1"/>
</g>
<g id="PLATEA_H6">
<g class="st3">
<text class="st0" transform="translate(52.53 113.69)"><tspan x="0" y="0">6</tspan></text>
</g>
<rect class="posto st1" data-posto="PLATEA_H6" data-zona="PLATEA" x="49.95" y="109.44" width="6.82" height="6.82" rx="2.1" ry="2.1"/>
</g>
<g id="PLATEA_H5">
<g class="st3">
<text class="st0" transform="translate(43.9 113.69)"><tspan x="0" y="0">5</tspan></text>
</g>
<rect class="posto st1" data-posto="PLATEA_H5" data-zona="PLATEA" x="41.33" y="109.44" width="6.82" height="6.82" rx="2.1" ry="2.1"/>
</g>
<g id="PLATEA_H4">
<g class="st3">
<text class="st0" transform="translate(35.21 113.69)"><tspan x="0" y="0">4</tspan></text>
</g>
<rect class="posto st1" data-posto="PLATEA_H4" data-zona="PLATEA" x="32.64" y="109.44" width="6.82" height="6.82" rx="2.1" ry="2.1"/>
</g>
<g id="PLATEA_H3">
<g class="st3">
<text class="st0" transform="translate(26.59 113.69)"><tspan x="0" y="0">3</tspan></text>
</g>
<rect class="posto st1" data-posto="PLATEA_H3" data-zona="PLATEA" x="24.01" y="109.44" width="6.82" height="6.82" rx="2.1" ry="2.1"/>
</g>
<g id="PLATEA_H2">
<g class="st3">
<text class="st0" transform="translate(17.96 113.69)"><tspan x="0" y="0">2</tspan></text>
</g>
<rect class="posto st1" data-posto="PLATEA_H2" data-zona="PLATEA" x="15.45" y="109.44" width="6.82" height="6.82" rx="2.1" ry="2.1"/>
</g>
<g id="PLATEA_H1">
<g class="st3">
<text class="st0" transform="translate(9.4 113.69)"><tspan x="0" y="0">1</tspan></text>
</g>
<rect class="posto st1" data-posto="PLATEA_H1" data-zona="PLATEA" x="6.83" y="109.44" width="6.82" height="6.82" rx="2.1" ry="2.1"/>
</g>
</g>
<g id="PLATEA_FILA_G">
<g id="PLATEA_G12">
<g class="st3">
<text class="st0" transform="translate(103.12 104.1)"><tspan x="0" y="0">12</tspan></text>
</g>
<rect class="posto st1" data-posto="PLATEA_G12" data-zona="PLATEA" x="101.57" y="99.85" width="6.82" height="6.82" rx="2.1" ry="2.1"/>
</g>
<g id="PLATEA_G11">
<g class="st3">
<g class="st3">
<text class="st0" transform="translate(94.62 104.1)"><tspan x="0" y="0">1</tspan></text>
</g>
<g class="st3">
<text class="st0" transform="translate(96.2 104.1)"><tspan x="0" y="0">1</tspan></text>
</g>
</g>
<rect class="posto st1" data-posto="PLATEA_G11" data-zona="PLATEA" x="92.95" y="99.85" width="6.82" height="6.82" rx="2.1" ry="2.1"/>
</g>
<g id="PLATEA_G10">
<g class="st3">
<text class="st0" transform="translate(86.06 104.1)"><tspan x="0" y="0">10</tspan></text>
</g>
<rect class="posto st1" data-posto="PLATEA_G10" data-zona="PLATEA" x="84.32" y="99.85" width="6.82" height="6.82" rx="2.1" ry="2.1"/>
</g>
<g id="PLATEA_G9">
<g class="st3">
<text class="st0" transform="translate(78.34 104.1)"><tspan x="0" y="0">9</tspan></text>
</g>
<rect class="posto st1" data-posto="PLATEA_G9" data-zona="PLATEA" x="75.76" y="99.85" width="6.82" height="6.82" rx="2.1" ry="2.1"/>
</g>
<g id="PLATEA_G8">
<g class="st3">
<text class="st0" transform="translate(69.71 104.1)"><tspan x="0" y="0">8</tspan></text>
</g>
<rect class="posto st1" data-posto="PLATEA_G8" data-zona="PLATEA" x="67.14" y="99.85" width="6.82" height="6.82" rx="2.1" ry="2.1"/>
</g>
<g id="PLATEA_G7">
<g class="st3">
<text class="st0" transform="translate(61.09 104.1)"><tspan x="0" y="0">7</tspan></text>
</g>
<rect class="posto st1" data-posto="PLATEA_G7" data-zona="PLATEA" x="58.58" y="99.85" width="6.82" height="6.82" rx="2.1" ry="2.1"/>
</g>
<g id="PLATEA_G6">
<g class="st3">
<text class="st0" transform="translate(52.53 104.1)"><tspan x="0" y="0">6</tspan></text>
</g>
<rect class="posto st1" data-posto="PLATEA_G6" data-zona="PLATEA" x="49.95" y="99.85" width="6.82" height="6.82" rx="2.1" ry="2.1"/>
</g>
<g id="PLATEA_G5">
<g class="st3">
<text class="st0" transform="translate(43.9 104.1)"><tspan x="0" y="0">5</tspan></text>
</g>
<rect class="posto st1" data-posto="PLATEA_G5" data-zona="PLATEA" x="41.33" y="99.85" width="6.82" height="6.82" rx="2.1" ry="2.1"/>
</g>
<g id="PLATEA_G4">
<g class="st3">
<text class="st0" transform="translate(35.21 104.1)"><tspan x="0" y="0">4</tspan></text>
</g>
<rect class="posto st1" data-posto="PLATEA_G4" data-zona="PLATEA" x="32.64" y="99.85" width="6.82" height="6.82" rx="2.1" ry="2.1"/>
</g>
<g id="PLATEA_G3">
<g class="st3">
<text class="st0" transform="translate(26.59 104.1)"><tspan x="0" y="0">3</tspan></text>
</g>
<rect class="posto st1" data-posto="PLATEA_G3" data-zona="PLATEA" x="24.01" y="99.85" width="6.82" height="6.82" rx="2.1" ry="2.1"/>
</g>
<g id="PLATEA_G2">
<g class="st3">
<text class="st0" transform="translate(17.96 104.1)"><tspan x="0" y="0">2</tspan></text>
</g>
<rect class="posto st1" data-posto="PLATEA_G2" data-zona="PLATEA" x="15.45" y="99.85" width="6.82" height="6.82" rx="2.1" ry="2.1"/>
</g>
<g id="PLATEA_G1">
<g class="st3">
<text class="st0" transform="translate(9.4 104.1)"><tspan x="0" y="0">1</tspan></text>
</g>
<rect class="posto st1" data-posto="PLATEA_G1" data-zona="PLATEA" x="6.83" y="99.85" width="6.82" height="6.82" rx="2.1" ry="2.1"/>
</g>
</g>
<g id="PLATEA_FILA_F">
<g id="PLATEA_F12">
<g class="st3">
<text class="st0" transform="translate(103.12 88.55)"><tspan x="0" y="0">12</tspan></text>
</g>
<rect class="posto st1" data-posto="PLATEA_F12" data-zona="PLATEA" x="101.57" y="84.3" width="6.82" height="6.82" rx="2.1" ry="2.1"/>
</g>
<g id="PLATEA_F11">
<g class="st3">
<g class="st3">
<text class="st0" transform="translate(94.62 88.55)"><tspan x="0" y="0">1</tspan></text>
</g>
<g class="st3">
<text class="st0" transform="translate(96.2 88.55)"><tspan x="0" y="0">1</tspan></text>
</g>
</g>
<rect class="posto st1" data-posto="PLATEA_F11" data-zona="PLATEA" x="92.95" y="84.3" width="6.82" height="6.82" rx="2.1" ry="2.1"/>
</g>
<g id="PLATEA_F10">
<g class="st3">
<text class="st0" transform="translate(86.06 88.55)"><tspan x="0" y="0">10</tspan></text>
</g>
<rect class="posto st1" data-posto="PLATEA_F10" data-zona="PLATEA" x="84.32" y="84.3" width="6.82" height="6.82" rx="2.1" ry="2.1"/>
</g>
<g id="PLATEA_F9">
<g class="st3">
<text class="st0" transform="translate(78.34 88.55)"><tspan x="0" y="0">9</tspan></text>
</g>
<rect class="posto st1" data-posto="PLATEA_F9" data-zona="PLATEA" x="75.76" y="84.3" width="6.82" height="6.82" rx="2.1" ry="2.1"/>
</g>
<g id="PLATEA_F8">
<g class="st3">
<text class="st0" transform="translate(69.71 88.55)"><tspan x="0" y="0">8</tspan></text>
</g>
<rect class="posto st1" data-posto="PLATEA_F8" data-zona="PLATEA" x="67.14" y="84.3" width="6.82" height="6.82" rx="2.1" ry="2.1"/>
</g>
<g id="PLATEA_F7">
<g class="st3">
<text class="st0" transform="translate(61.09 88.55)"><tspan x="0" y="0">7</tspan></text>
</g>
<rect class="posto st1" data-posto="PLATEA_F7" data-zona="PLATEA" x="58.58" y="84.3" width="6.82" height="6.82" rx="2.1" ry="2.1"/>
</g>
<g id="PLATEA_F6">
<g class="st3">
<text class="st0" transform="translate(52.53 88.55)"><tspan x="0" y="0">6</tspan></text>
</g>
<rect class="posto st1" data-posto="PLATEA_F6" data-zona="PLATEA" x="49.95" y="84.3" width="6.82" height="6.82" rx="2.1" ry="2.1"/>
</g>
<g id="PLATEA_F5">
<g class="st3">
<text class="st0" transform="translate(43.9 88.55)"><tspan x="0" y="0">5</tspan></text>
</g>
<rect class="posto st1" data-posto="PLATEA_F5" data-zona="PLATEA" x="41.33" y="84.3" width="6.82" height="6.82" rx="2.1" ry="2.1"/>
</g>
<g id="PLATEA_F4">
<g class="st3">
<text class="st0" transform="translate(35.21 88.55)"><tspan x="0" y="0">4</tspan></text>
</g>
<rect class="posto st1" data-posto="PLATEA_F4" data-zona="PLATEA" x="32.64" y="84.3" width="6.82" height="6.82" rx="2.1" ry="2.1"/>
</g>
<g id="PLATEA_F3">
<g class="st3">
<text class="st0" transform="translate(26.59 88.55)"><tspan x="0" y="0">3</tspan></text>
</g>
<rect class="posto st1" data-posto="PLATEA_F3" data-zona="PLATEA" x="24.01" y="84.3" width="6.82" height="6.82" rx="2.1" ry="2.1"/>
</g>
<g id="PLATEA_F2">
<g class="st3">
<text class="st0" transform="translate(17.96 88.55)"><tspan x="0" y="0">2</tspan></text>
</g>
<rect class="posto st1" data-posto="PLATEA_F2" data-zona="PLATEA" x="15.45" y="84.3" width="6.82" height="6.82" rx="2.1" ry="2.1"/>
</g>
<g id="PLATEA_F1">
<g class="st3">
<text class="st0" transform="translate(9.4 88.55)"><tspan x="0" y="0">1</tspan></text>
</g>
<rect class="posto st1" data-posto="PLATEA_F1" data-zona="PLATEA" x="6.83" y="84.3" width="6.82" height="6.82" rx="2.1" ry="2.1"/>
</g>
</g>
<g id="PLATEA_FILA_E">
<g id="PLATEA_E12">
<g class="st3">
<text class="st0" transform="translate(103.12 79.28)"><tspan x="0" y="0">12</tspan></text>
</g>
<rect class="posto st1" data-posto="PLATEA_E12" data-zona="PLATEA" x="101.57" y="75.03" width="6.82" height="6.82" rx="2.1" ry="2.1"/>
</g>
<g id="PLATEA_E11">
<g class="st3">
<g class="st3">
<text class="st0" transform="translate(94.62 79.28)"><tspan x="0" y="0">1</tspan></text>
</g>
<g class="st3">
<text class="st0" transform="translate(96.2 79.28)"><tspan x="0" y="0">1</tspan></text>
</g>
</g>
<rect class="posto st1" data-posto="PLATEA_E11" data-zona="PLATEA" x="92.95" y="75.03" width="6.82" height="6.82" rx="2.1" ry="2.1"/>
</g>
<g id="PLATEA_E10">
<g class="st3">
<text class="st0" transform="translate(86.06 79.28)"><tspan x="0" y="0">10</tspan></text>
</g>
<rect class="posto st1" data-posto="PLATEA_E10" data-zona="PLATEA" x="84.32" y="75.03" width="6.82" height="6.82" rx="2.1" ry="2.1"/>
</g>
<g id="PLATEA_E9">
<g class="st3">
<text class="st0" transform="translate(78.34 79.28)"><tspan x="0" y="0">9</tspan></text>
</g>
<rect class="posto st1" data-posto="PLATEA_E9" data-zona="PLATEA" x="75.76" y="75.03" width="6.82" height="6.82" rx="2.1" ry="2.1"/>
</g>
<g id="PLATEA_E8">
<g class="st3">
<text class="st0" transform="translate(69.71 79.28)"><tspan x="0" y="0">8</tspan></text>
</g>
<rect class="posto st1" data-posto="PLATEA_E8" data-zona="PLATEA" x="67.14" y="75.03" width="6.82" height="6.82" rx="2.1" ry="2.1"/>
</g>
<g id="PLATEA_E7">
<g class="st3">
<text class="st0" transform="translate(61.09 79.28)"><tspan x="0" y="0">7</tspan></text>
</g>
<rect class="posto st1" data-posto="PLATEA_E7" data-zona="PLATEA" x="58.58" y="75.03" width="6.82" height="6.82" rx="2.1" ry="2.1"/>
</g>
<g id="PLATEA_E6">
<g class="st3">
<text class="st0" transform="translate(52.53 79.28)"><tspan x="0" y="0">6</tspan></text>
</g>
<rect class="posto st1" data-posto="PLATEA_E6" data-zona="PLATEA" x="49.95" y="75.03" width="6.82" height="6.82" rx="2.1" ry="2.1"/>
</g>
<g id="PLATEA_E5">
<g class="st3">
<text class="st0" transform="translate(43.9 79.28)"><tspan x="0" y="0">5</tspan></text>
</g>
<rect class="posto st1" data-posto="PLATEA_E5" data-zona="PLATEA" x="41.33" y="75.03" width="6.82" height="6.82" rx="2.1" ry="2.1"/>
</g>
<g id="PLATEA_E4">
<g class="st3">
<text class="st0" transform="translate(35.21 79.28)"><tspan x="0" y="0">4</tspan></text>
</g>
<rect class="posto st1" data-posto="PLATEA_E4" data-zona="PLATEA" x="32.64" y="75.03" width="6.82" height="6.82" rx="2.1" ry="2.1"/>
</g>
<g id="PLATEA_E3">
<g class="st3">
<text class="st0" transform="translate(26.59 79.28)"><tspan x="0" y="0">3</tspan></text>
</g>
<rect class="posto st1" data-posto="PLATEA_E3" data-zona="PLATEA" x="24.01" y="75.03" width="6.82" height="6.82" rx="2.1" ry="2.1"/>
</g>
<g id="PLATEA_E2">
<g class="st3">
<text class="st0" transform="translate(17.96 79.28)"><tspan x="0" y="0">2</tspan></text>
</g>
<rect class="posto st1" data-posto="PLATEA_E2" data-zona="PLATEA" x="15.45" y="75.03" width="6.82" height="6.82" rx="2.1" ry="2.1"/>
</g>
<g id="PLATEA_E1">
<g class="st3">
<text class="st0" transform="translate(9.4 79.28)"><tspan x="0" y="0">1</tspan></text>
</g>
<rect class="posto st1" data-posto="PLATEA_E1" data-zona="PLATEA" x="6.83" y="75.03" width="6.82" height="6.82" rx="2.1" ry="2.1"/>
</g>
</g>
<g id="PLATEA_FILA_D">
<g id="PLATEA_D12">
<g class="st3">
<text class="st0" transform="translate(103.12 69.69)"><tspan x="0" y="0">12</tspan></text>
</g>
<rect class="posto st1" data-posto="PLATEA_D12" data-zona="PLATEA" x="101.57" y="65.44" width="6.82" height="6.82" rx="2.1" ry="2.1"/>
</g>
<g id="PLATEA_D11">
<g class="st3">
<g class="st3">
<text class="st0" transform="translate(94.62 69.69)"><tspan x="0" y="0">1</tspan></text>
</g>
<g class="st3">
<text class="st0" transform="translate(96.2 69.69)"><tspan x="0" y="0">1</tspan></text>
</g>
</g>
<rect class="posto st1" data-posto="PLATEA_D11" data-zona="PLATEA" x="92.95" y="65.44" width="6.82" height="6.82" rx="2.1" ry="2.1"/>
</g>
<g id="PLATEA_D10">
<g class="st3">
<text class="st0" transform="translate(86.06 69.69)"><tspan x="0" y="0">10</tspan></text>
</g>
<rect class="posto st1" data-posto="PLATEA_D10" data-zona="PLATEA" x="84.32" y="65.44" width="6.82" height="6.82" rx="2.1" ry="2.1"/>
</g>
<g id="PLATEA_D9">
<g class="st3">
<text class="st0" transform="translate(78.34 69.69)"><tspan x="0" y="0">9</tspan></text>
</g>
<rect class="posto st1" data-posto="PLATEA_D9" data-zona="PLATEA" x="75.76" y="65.44" width="6.82" height="6.82" rx="2.1" ry="2.1"/>
</g>
<g id="PLATEA_D8">
<g class="st3">
<text class="st0" transform="translate(69.71 69.69)"><tspan x="0" y="0">8</tspan></text>
</g>
<rect class="posto st1" data-posto="PLATEA_D8" data-zona="PLATEA" x="67.14" y="65.44" width="6.82" height="6.82" rx="2.1" ry="2.1"/>
</g>
<g id="PLATEA_D7">
<g class="st3">
<text class="st0" transform="translate(61.09 69.69)"><tspan x="0" y="0">7</tspan></text>
</g>
<rect class="posto st1" data-posto="PLATEA_D7" data-zona="PLATEA" x="58.58" y="65.44" width="6.82" height="6.82" rx="2.1" ry="2.1"/>
</g>
<g id="PLATEA_D6">
<g class="st3">
<text class="st0" transform="translate(52.53 69.69)"><tspan x="0" y="0">6</tspan></text>
</g>
<rect class="posto st1" data-posto="PLATEA_D6" data-zona="PLATEA" x="49.95" y="65.44" width="6.82" height="6.82" rx="2.1" ry="2.1"/>
</g>
<g id="PLATEA_D5">
<g class="st3">
<text class="st0" transform="translate(43.9 69.69)"><tspan x="0" y="0">5</tspan></text>
</g>
<rect class="posto st1" data-posto="PLATEA_D5" data-zona="PLATEA" x="41.33" y="65.44" width="6.82" height="6.82" rx="2.1" ry="2.1"/>
</g>
<g id="PLATEA_D4">
<g class="st3">
<text class="st0" transform="translate(35.21 69.69)"><tspan x="0" y="0">4</tspan></text>
</g>
<rect class="posto st1" data-posto="PLATEA_D4" data-zona="PLATEA" x="32.64" y="65.44" width="6.82" height="6.82" rx="2.1" ry="2.1"/>
</g>
<g id="PLATEA_D3">
<g class="st3">
<text class="st0" transform="translate(26.59 69.69)"><tspan x="0" y="0">3</tspan></text>
</g>
<rect class="posto st1" data-posto="PLATEA_D3" data-zona="PLATEA" x="24.01" y="65.44" width="6.82" height="6.82" rx="2.1" ry="2.1"/>
</g>
<g id="PLATEA_D2">
<g class="st3">
<text class="st0" transform="translate(17.96 69.69)"><tspan x="0" y="0">2</tspan></text>
</g>
<rect class="posto st1" data-posto="PLATEA_D2" data-zona="PLATEA" x="15.45" y="65.44" width="6.82" height="6.82" rx="2.1" ry="2.1"/>
</g>
<g id="PLATEA_D1">
<g class="st3">
<text class="st0" transform="translate(9.4 69.69)"><tspan x="0" y="0">1</tspan></text>
</g>
<rect class="posto st1" data-posto="PLATEA_D1" data-zona="PLATEA" x="6.83" y="65.44" width="6.82" height="6.82" rx="2.1" ry="2.1"/>
</g>
</g>
<g id="PLATEA_FILA_C">
<g id="PLATEA_C12">
<g class="st3">
<text class="st0" transform="translate(103.12 60.1)"><tspan x="0" y="0">12</tspan></text>
</g>
<rect class="posto st1" data-posto="PLATEA_C12" data-zona="PLATEA" x="101.57" y="55.85" width="6.82" height="6.82" rx="2.1" ry="2.1"/>
</g>
<g id="PLATEA_C11">
<g class="st3">
<g class="st3">
<text class="st0" transform="translate(94.62 60.1)"><tspan x="0" y="0">1</tspan></text>
</g>
<g class="st3">
<text class="st0" transform="translate(96.2 60.1)"><tspan x="0" y="0">1</tspan></text>
</g>
</g>
<rect class="posto st1" data-posto="PLATEA_C11" data-zona="PLATEA" x="92.95" y="55.85" width="6.82" height="6.82" rx="2.1" ry="2.1"/>
</g>
<g id="PLATEA_C10">
<g class="st3">
<text class="st0" transform="translate(86.06 60.1)"><tspan x="0" y="0">10</tspan></text>
</g>
<rect class="posto st1" data-posto="PLATEA_C10" data-zona="PLATEA" x="84.32" y="55.85" width="6.82" height="6.82" rx="2.1" ry="2.1"/>
</g>
<g id="PLATEA_C9">
<g class="st3">
<text class="st0" transform="translate(78.34 60.1)"><tspan x="0" y="0">9</tspan></text>
</g>
<rect class="posto st1" data-posto="PLATEA_C9" data-zona="PLATEA" x="75.76" y="55.85" width="6.82" height="6.82" rx="2.1" ry="2.1"/>
</g>
<g id="PLATEA_C8">
<g class="st3">
<text class="st0" transform="translate(69.71 60.1)"><tspan x="0" y="0">8</tspan></text>
</g>
<rect class="posto st1" data-posto="PLATEA_C8" data-zona="PLATEA" x="67.14" y="55.85" width="6.82" height="6.82" rx="2.1" ry="2.1"/>
</g>
<g id="PLATEA_C7">
<g class="st3">
<text class="st0" transform="translate(61.09 60.1)"><tspan x="0" y="0">7</tspan></text>
</g>
<rect class="posto st1" data-posto="PLATEA_C7" data-zona="PLATEA" x="58.58" y="55.85" width="6.82" height="6.82" rx="2.1" ry="2.1"/>
</g>
<g id="PLATEA_C6">
<g class="st3">
<text class="st0" transform="translate(52.53 60.1)"><tspan x="0" y="0">6</tspan></text>
</g>
<rect class="posto st1" data-posto="PLATEA_C6" data-zona="PLATEA" x="49.95" y="55.85" width="6.82" height="6.82" rx="2.1" ry="2.1"/>
</g>
<g id="PLATEA_C5">
<g class="st3">
<text class="st0" transform="translate(43.9 60.1)"><tspan x="0" y="0">5</tspan></text>
</g>
<rect class="posto st1" data-posto="PLATEA_C5" data-zona="PLATEA" x="41.33" y="55.85" width="6.82" height="6.82" rx="2.1" ry="2.1"/>
</g>
<g id="PLATEA_C4">
<g class="st3">
<text class="st0" transform="translate(35.21 60.1)"><tspan x="0" y="0">4</tspan></text>
</g>
<rect class="posto st1" data-posto="PLATEA_C4" data-zona="PLATEA" x="32.64" y="55.85" width="6.82" height="6.82" rx="2.1" ry="2.1"/>
</g>
<g id="PLATEA_C3">
<g class="st3">
<text class="st0" transform="translate(26.59 60.1)"><tspan x="0" y="0">3</tspan></text>
</g>
<rect class="posto st1" data-posto="PLATEA_C3" data-zona="PLATEA" x="24.01" y="55.85" width="6.82" height="6.82" rx="2.1" ry="2.1"/>
</g>
<g id="PLATEA_C2">
<g class="st3">
<text class="st0" transform="translate(17.96 60.1)"><tspan x="0" y="0">2</tspan></text>
</g>
<rect class="posto st1" data-posto="PLATEA_C2" data-zona="PLATEA" x="15.45" y="55.85" width="6.82" height="6.82" rx="2.1" ry="2.1"/>
</g>
<g id="PLATEA_C1">
<g class="st3">
<text class="st0" transform="translate(9.4 60.1)"><tspan x="0" y="0">1</tspan></text>
</g>
<rect class="posto st1" data-posto="PLATEA_C1" data-zona="PLATEA" x="6.83" y="55.85" width="6.82" height="6.82" rx="2.1" ry="2.1"/>
</g>
</g>
<g id="PLATEA_FILA_B">
<g id="PLATEA_B12">
<g class="st3">
<text class="st0" transform="translate(103.12 50.83)"><tspan x="0" y="0">12</tspan></text>
</g>
<rect class="posto st1" data-posto="PLATEA_B12" data-zona="PLATEA" x="101.57" y="46.58" width="6.82" height="6.82" rx="2.1" ry="2.1"/>
</g>
<g id="PLATEA_B11">
<g class="st3">
<g class="st3">
<text class="st0" transform="translate(94.62 50.83)"><tspan x="0" y="0">1</tspan></text>
</g>
<g class="st3">
<text class="st0" transform="translate(96.2 50.83)"><tspan x="0" y="0">1</tspan></text>
</g>
</g>
<rect class="posto st1" data-posto="PLATEA_B11" data-zona="PLATEA" x="92.95" y="46.58" width="6.82" height="6.82" rx="2.1" ry="2.1"/>
</g>
<g id="PLATEA_B10">
<g class="st3">
<text class="st0" transform="translate(86.06 50.83)"><tspan x="0" y="0">10</tspan></text>
</g>
<rect class="posto st1" data-posto="PLATEA_B10" data-zona="PLATEA" x="84.32" y="46.58" width="6.82" height="6.82" rx="2.1" ry="2.1"/>
</g>
<g id="PLATEA_B9">
<g class="st3">
<text class="st0" transform="translate(78.34 50.83)"><tspan x="0" y="0">9</tspan></text>
</g>
<rect class="posto st1" data-posto="PLATEA_B9" data-zona="PLATEA" x="75.76" y="46.58" width="6.82" height="6.82" rx="2.1" ry="2.1"/>
</g>
<g id="PLATEA_B8">
<g class="st3">
<text class="st0" transform="translate(69.71 50.83)"><tspan x="0" y="0">8</tspan></text>
</g>
<rect class="posto st1" data-posto="PLATEA_B8" data-zona="PLATEA" x="67.14" y="46.58" width="6.82" height="6.82" rx="2.1" ry="2.1"/>
</g>
<g id="PLATEA_B7">
<g class="st3">
<text class="st0" transform="translate(61.09 50.83)"><tspan x="0" y="0">7</tspan></text>
</g>
<rect class="posto st1" data-posto="PLATEA_B7" data-zona="PLATEA" x="58.58" y="46.58" width="6.82" height="6.82" rx="2.1" ry="2.1"/>
</g>
<g id="PLATEA_B6">
<g class="st3">
<text class="st0" transform="translate(52.53 50.83)"><tspan x="0" y="0">6</tspan></text>
</g>
<rect class="posto st1" data-posto="PLATEA_B6" data-zona="PLATEA" x="49.95" y="46.58" width="6.82" height="6.82" rx="2.1" ry="2.1"/>
</g>
<g id="PLATEA_B5">
<g class="st3">
<text class="st0" transform="translate(43.9 50.83)"><tspan x="0" y="0">5</tspan></text>
</g>
<rect class="posto st1" data-posto="PLATEA_B5" data-zona="PLATEA" x="41.33" y="46.58" width="6.82" height="6.82" rx="2.1" ry="2.1"/>
</g>
<g id="PLATEA_B4">
<g class="st3">
<text class="st0" transform="translate(35.21 50.83)"><tspan x="0" y="0">4</tspan></text>
</g>
<rect class="posto st1" data-posto="PLATEA_B4" data-zona="PLATEA" x="32.64" y="46.58" width="6.82" height="6.82" rx="2.1" ry="2.1"/>
</g>
<g id="PLATEA_B3">
<g class="st3">
<text class="st0" transform="translate(26.59 50.83)"><tspan x="0" y="0">3</tspan></text>
</g>
<rect class="posto st1" data-posto="PLATEA_B3" data-zona="PLATEA" x="24.01" y="46.58" width="6.82" height="6.82" rx="2.1" ry="2.1"/>
</g>
<g id="PLATEA_B2">
<g class="st3">
<text class="st0" transform="translate(17.96 50.83)"><tspan x="0" y="0">2</tspan></text>
</g>
<rect class="posto st1" data-posto="PLATEA_B2" data-zona="PLATEA" x="15.45" y="46.58" width="6.82" height="6.82" rx="2.1" ry="2.1"/>
</g>
<g id="PLATEA_B1">
<g class="st3">
<text class="st0" transform="translate(9.4 50.83)"><tspan x="0" y="0">1</tspan></text>
</g>
<rect class="posto st1" data-posto="PLATEA_B1" data-zona="PLATEA" x="6.83" y="46.58" width="6.82" height="6.82" rx="2.1" ry="2.1"/>
</g>
</g>
<g id="PLATEA_FILA_A">
<g id="PLATEA_A12">
<g class="st3">
<text class="st0" transform="translate(103.12 41.24)"><tspan x="0" y="0">12</tspan></text>
</g>
<rect class="posto st1" data-posto="PLATEA_A12" data-zona="PLATEA" x="101.57" y="36.99" width="6.82" height="6.82" rx="2.1" ry="2.1"/>
</g>
<g id="PLATEA_A11">
<g class="st3">
<g class="st3">
<text class="st0" transform="translate(94.62 41.24)"><tspan x="0" y="0">1</tspan></text>
</g>
<g class="st3">
<text class="st0" transform="translate(96.2 41.24)"><tspan x="0" y="0">1</tspan></text>
</g>
</g>
<rect class="posto st1" data-posto="PLATEA_A11" data-zona="PLATEA" x="92.95" y="36.99" width="6.82" height="6.82" rx="2.1" ry="2.1"/>
</g>
<g id="PLATEA_A10">
<g class="st3">
<text class="st0" transform="translate(86.06 41.24)"><tspan x="0" y="0">10</tspan></text>
</g>
<rect class="posto st1" data-posto="PLATEA_A10" data-zona="PLATEA" x="84.32" y="36.99" width="6.82" height="6.82" rx="2.1" ry="2.1"/>
</g>
<g id="PLATEA_A9">
<g class="st3">
<text class="st0" transform="translate(78.34 41.24)"><tspan x="0" y="0">9</tspan></text>
</g>
<rect class="posto st1" data-posto="PLATEA_A9" data-zona="PLATEA" x="75.76" y="36.99" width="6.82" height="6.82" rx="2.1" ry="2.1"/>
</g>
<g id="PLATEA_A8">
<g class="st3">
<text class="st0" transform="translate(69.71 41.24)"><tspan x="0" y="0">8</tspan></text>
</g>
<rect class="posto st1" data-posto="PLATEA_A8" data-zona="PLATEA" x="67.14" y="36.99" width="6.82" height="6.82" rx="2.1" ry="2.1"/>
</g>
<g id="PLATEA_A7">
<g class="st3">
<text class="st0" transform="translate(61.09 41.24)"><tspan x="0" y="0">7</tspan></text>
</g>
<rect class="posto st1" data-posto="PLATEA_A7" data-zona="PLATEA" x="58.58" y="36.99" width="6.82" height="6.82" rx="2.1" ry="2.1"/>
</g>
<g id="PLATEA_A6">
<g class="st3">
<text class="st0" transform="translate(52.53 41.24)"><tspan x="0" y="0">6</tspan></text>
</g>
<rect class="posto st1" data-posto="PLATEA_A6" data-zona="PLATEA" x="49.95" y="36.99" width="6.82" height="6.82" rx="2.1" ry="2.1"/>
</g>
<g id="PLATEA_A5">
<g class="st3">
<text class="st0" transform="translate(43.9 41.24)"><tspan x="0" y="0">5</tspan></text>
</g>
<rect class="posto st1" data-posto="PLATEA_A5" data-zona="PLATEA" x="41.33" y="36.99" width="6.82" height="6.82" rx="2.1" ry="2.1"/>
</g>
<g id="PLATEA_A4">
<g class="st3">
<text class="st0" transform="translate(35.21 41.24)"><tspan x="0" y="0">4</tspan></text>
</g>
<rect class="posto st1" data-posto="PLATEA_A4" data-zona="PLATEA" x="32.64" y="36.99" width="6.82" height="6.82" rx="2.1" ry="2.1"/>
</g>
<g id="PLATEA_A3">
<g class="st3">
<text class="st0" transform="translate(26.59 41.24)"><tspan x="0" y="0">3</tspan></text>
</g>
<rect class="posto st1" data-posto="PLATEA_A3" data-zona="PLATEA" x="24.01" y="36.99" width="6.82" height="6.82" rx="2.1" ry="2.1"/>
</g>
<g id="PLATEA_A2">
<g class="st3">
<text class="st0" transform="translate(17.96 41.24)"><tspan x="0" y="0">2</tspan></text>
</g>
<rect class="posto st1" data-posto="PLATEA_A2" data-zona="PLATEA" x="15.45" y="36.99" width="6.82" height="6.82" rx="2.1" ry="2.1"/>
</g>
<g id="PLATEA_A1">
<g class="st3">
<text class="st0" transform="translate(9.4 41.24)"><tspan x="0" y="0">1</tspan></text>
</g>
<rect class="posto st1" data-posto="PLATEA_A1" data-zona="PLATEA" x="6.83" y="36.99" width="6.82" height="6.82" rx="2.1" ry="2.1"/>
</g>
</g>
</g>
<g id="VARIE">
<rect class="posto st2" data-posto="VARIE" data-zona="VARIE" id="PALCO" x="6.85" y="6.01" width="101.3" height="22.1"/>
<g class="st3">
<text class="st4" transform="translate(3.25 51.19)"><tspan x="0" y="0">B</tspan></text>
</g>
<g class="st3">
<text class="st4" transform="translate(3.25 60.45)"><tspan x="0" y="0">C</tspan></text>
</g>
<g class="st3">
<text class="st4" transform="translate(3.25 41.08)"><tspan x="0" y="0">A</tspan></text>
</g>
<g class="st3">
<text class="st4" transform="translate(3.25 79.8)"><tspan x="0" y="0">E</tspan></text>
</g>
<g class="st3">
<text class="st4" transform="translate(3.25 89.07)"><tspan x="0" y="0">F</tspan></text>
</g>
<g class="st3">
<text class="st4" transform="translate(3.25 69.69)"><tspan x="0" y="0">D</tspan></text>
</g>
<g class="st3">
<text class="st4" transform="translate(3.25 104.1)"><tspan x="0" y="0">G</tspan></text>
</g>
<g class="st3">
<text class="st4" transform="translate(3.25 123.44)"><tspan x="0" y="0">I</tspan></text>
</g>
<g class="st3">
<text class="st4" transform="translate(3.25 132.71)"><tspan x="0" y="0">L</tspan></text>
</g>
<g class="st3">
<text class="st4" transform="translate(3.25 113.33)"><tspan x="0" y="0">H</tspan></text>
</g>
<g class="st3">
<text class="st4" transform="translate(110.79 51.19)"><tspan x="0" y="0">B</tspan></text>
</g>
<g class="st3">
<text class="st4" transform="translate(110.79 60.45)"><tspan x="0" y="0">C</tspan></text>
</g>
<g class="st3">
<text class="st4" transform="translate(110.79 41.08)"><tspan x="0" y="0">A</tspan></text>
</g>
<g class="st3">
<text class="st4" transform="translate(110.79 79.8)"><tspan x="0" y="0">E</tspan></text>
</g>
<g class="st3">
<text class="st4" transform="translate(110.79 89.07)"><tspan x="0" y="0">F</tspan></text>
</g>
<g class="st3">
<text class="st4" transform="translate(110.79 69.69)"><tspan x="0" y="0">D</tspan></text>
</g>
<g class="st3">
<text class="st4" transform="translate(110.79 104.1)"><tspan x="0" y="0">G</tspan></text>
</g>
<g class="st3">
<text class="st4" transform="translate(110.79 123.44)"><tspan x="0" y="0">I</tspan></text>
</g>
<g class="st3">
<text class="st4" transform="translate(110.79 132.71)"><tspan x="0" y="0">L</tspan></text>
</g>
<g class="st3">
<text class="st4" transform="translate(110.79 113.33)"><tspan x="0" y="0">H</tspan></text>
</g>
</g>
</g>
</g>
</svg>